<?xml version="1.0" encoding="UTF-8" standalone="no"?>
<svg
   id="Capa_1"
   viewBox="0 0 814.55601 395.21871"
   width="87.643211"
   height="37.269054"
   version="1.1"
   xmlns="http://www.w3.org/2000/svg"
   xmlns:svg="http://www.w3.org/2000/svg">
  <defs
     id="defs1">
    <style
       id="style1">.cls-1{fill:#10069f;}</style>
  </defs>
  <g
     id="g12"
     style="fill:#f7f7ed;fill-opacity:1"
     transform="translate(-65.523687,-0.00126861)">
    <g
       id="g2"
       style="fill:#f7f7ed;fill-opacity:1">
      <path
         class="cls-1"
         d="m 221.07,369.51 v -95.85 h 9.17 v 48.05 l -1.29,13.69 0.9,13.69 v 20.41 h -8.78 z m 35.01,0.65 c -5.94,0 -11.28,-1.36 -16.02,-4.07 -4.74,-2.71 -8.48,-6.65 -11.24,-11.82 -2.76,-5.17 -4.13,-11.41 -4.13,-18.73 0,-7.32 1.4,-13.67 4.2,-18.79 2.8,-5.12 6.57,-9.02 11.3,-11.69 4.74,-2.67 10.03,-4 15.89,-4 6.46,0 12.25,1.44 17.37,4.33 5.12,2.89 9.15,6.91 12.08,12.08 2.93,5.17 4.39,11.2 4.39,18.08 0,6.88 -1.47,12.81 -4.39,18.02 -2.93,5.21 -6.96,9.28 -12.08,12.21 -5.12,2.93 -10.92,4.39 -17.37,4.39 z m -0.65,-8.14 c 4.82,0 9.13,-1.1 12.92,-3.29 3.79,-2.2 6.8,-5.3 9.04,-9.3 2.24,-4 3.36,-8.63 3.36,-13.89 0,-5.26 -1.12,-9.99 -3.36,-13.95 -2.24,-3.96 -5.25,-7.04 -9.04,-9.24 -3.79,-2.2 -8.1,-3.29 -12.92,-3.29 -4.82,0 -9.15,1.1 -12.98,3.29 -3.83,2.2 -6.85,5.28 -9.04,9.24 -2.2,3.96 -3.29,8.61 -3.29,13.95 0,5.34 1.1,9.88 3.29,13.89 2.2,4 5.21,7.1 9.04,9.3 3.83,2.2 8.16,3.29 12.98,3.29 z"
         id="path1"
         style="fill:#f7f7ed;fill-opacity:1" />
      <path
         class="cls-1"
         d="m 307.23,395.22 c -3.19,0 -6.22,-0.52 -9.11,-1.55 -2.89,-1.03 -5.36,-2.58 -7.43,-4.65 l 4.26,-6.85 c 1.72,1.63 3.59,2.91 5.62,3.81 2.02,0.9 4.28,1.36 6.78,1.36 3.01,0 5.62,-0.84 7.82,-2.52 2.2,-1.68 4.28,-4.63 6.26,-8.85 l 4.39,-9.95 1.03,-1.42 27.9,-62.91 h 9.04 l -33.97,75.95 c -1.9,4.39 -3.98,7.88 -6.27,10.46 -2.28,2.58 -4.76,4.41 -7.43,5.49 -2.67,1.08 -5.64,1.61 -8.91,1.61 z m 18.08,-23.77 -31.26,-69.75 h 9.56 l 27.64,62.26 z"
         id="path2"
         style="fill:#f7f7ed;fill-opacity:1" />
    </g>
    <g
       id="g11"
       style="fill:#f7f7ed;fill-opacity:1">
      <path
         class="cls-1"
         d="m 599.33,350.48 c -4.04,0 -7.88,-0.5 -11.5,-1.47 -3.64,-0.97 -6.84,-2.49 -9.59,-4.55 -2.76,-2.06 -5.01,-4.69 -6.74,-7.91 -1.74,-3.22 -2.69,-7.13 -2.8,-11.76 l 56.91,0.12 c 1.64,-0.07 5.87,-0.45 8.21,-2.66 2.21,-2.11 2.78,-4.48 2.93,-5.79 0.03,-0.94 0.05,-1.9 0.05,-2.89 0.02,-8.59 -1.04,-16.24 -3.18,-22.92 -2.14,-6.68 -5.16,-12.24 -9.06,-16.68 -3.89,-4.44 -8.6,-7.82 -14.11,-10.14 -5.52,-2.32 -11.71,-3.49 -18.59,-3.51 -8.22,-0.02 -15.52,1.51 -21.93,4.58 -6.4,3.07 -11.8,7.23 -16.19,12.49 -4.41,5.26 -7.74,11.35 -10.04,18.28 -2.31,6.93 -3.47,14.25 -3.49,21.94 -0.02,8.36 1.17,15.87 3.59,22.56 2.41,6.68 5.93,12.37 10.56,17.07 4.63,4.7 10.32,8.31 17.05,10.83 6.72,2.52 14.46,3.79 23.22,3.81 7,0.02 13.64,-0.52 19.9,-1.6 6.27,-1.07 13.26,-2.56 20.55,-5.92 l 0.1,-21.13 c -7.34,2.89 -14.89,5.15 -20.8,6.06 -4.41,0.68 -9.4,1.23 -15.05,1.22 z m -28.95,-53.91 c 0.95,-2.88 2.26,-5.55 3.95,-7.99 1.68,-2.44 3.81,-4.45 6.37,-6.06 2.57,-1.6 5.66,-2.39 9.3,-2.39 3.63,0 6.69,0.79 9.19,2.33 2.48,1.55 4.46,3.55 5.94,5.99 1.47,2.45 2.51,5.11 3.12,8 0.59,2.89 0.89,5.75 0.88,8.57 l -40.39,-0.09 c 0.13,-2.7 0.69,-5.49 1.64,-8.38 z"
         id="path3"
         style="fill:#f7f7ed;fill-opacity:1" />
      <path
         class="cls-1"
         d="m 919.64,287.01 c -2.42,-1.29 -5.49,-2.55 -9.19,-3.78 -3.7,-1.23 -7.7,-1.85 -12.01,-1.85 -4.57,0 -8.05,0.94 -10.41,2.86 -2.36,1.92 -3.55,4.36 -3.56,7.32 0,2.95 1.24,5.43 3.73,7.42 2.48,2 6.95,4.29 13.42,6.87 9.55,3.75 16.57,8.28 21.08,13.62 4.49,5.34 6.73,11.73 6.71,19.18 -0.02,10.28 -3.88,18.49 -11.57,24.64 -7.69,6.14 -18.62,9.2 -32.74,9.17 -6.2,-0.01 -12.09,-0.67 -17.67,-1.96 -5.59,-1.3 -10.27,-3.04 -14.03,-5.24 l 5.7,-20.59 c 2.96,1.67 6.9,3.29 11.82,4.84 4.9,1.55 9.71,2.33 14.42,2.34 5.25,0.01 9.17,-0.94 11.73,-2.86 2.56,-1.92 3.84,-4.55 3.85,-7.9 0,-3.33 -1.12,-6.03 -3.4,-8.1 -2.3,-2.05 -6.52,-4.37 -12.72,-6.96 -10.48,-4.13 -17.89,-8.9 -22.18,-14.3 -4.3,-5.41 -6.45,-11.06 -6.43,-16.97 0.01,-4.74 1.01,-9.21 2.97,-13.38 1.96,-4.17 4.73,-7.76 8.31,-10.77 3.58,-3.01 7.9,-5.39 12.95,-7.1 5.05,-1.72 10.75,-2.58 17.08,-2.57 5.78,0.01 11.07,0.6 15.85,1.76 4.77,1.17 8.78,2.6 12.01,4.27 l -5.7,20.03 z"
         id="path4"
         style="fill:#f7f7ed;fill-opacity:1" />
      <path
         class="cls-1"
         d="m 836.11,370.44 -29.9,-0.06 0.25,-107.3 29.9,0.06 z"
         id="path5"
         style="fill:#f7f7ed;fill-opacity:1" />
      <path
         class="cls-1"
         d="m 431.89,369.57 -29.89,-0.06 0.25,-107.3 29.89,0.06 z"
         id="path6"
         style="fill:#f7f7ed;fill-opacity:1" />
      <path
         class="cls-1"
         d="m 837.45,233.6 c -0.01,4.63 -1.52,8.32 -4.57,11.08 -3.03,2.75 -6.91,4.12 -11.62,4.11 -4.72,-0.01 -8.56,-1.47 -11.51,-4.35 -2.96,-2.9 -4.43,-6.53 -4.42,-10.9 0.01,-4.49 1.49,-8.14 4.47,-10.97 2.97,-2.82 6.81,-4.22 11.53,-4.21 4.84,0.01 8.74,1.43 11.71,4.26 2.94,2.84 4.42,6.5 4.41,10.99 z"
         id="path7"
         style="fill:#f7f7ed;fill-opacity:1" />
      <path
         class="cls-1"
         d="m 727.96,237 29.49,0.06 -0.06,25.9 33.33,0.07 -0.05,23.11 -33.33,-0.07 -0.11,44.64 c -0.02,6.57 1.05,11.28 3.2,14.11 2.15,2.84 5.5,4.26 10.09,4.27 2.15,0 3.94,-0.08 5.35,-0.27 1.42,-0.18 2.87,-0.41 4.35,-0.67 v 21.5 c -2.01,0.76 -4.44,1.46 -7.94,1.91 -3.5,0.43 -7.4,0.65 -11.71,0.64 -8.08,-0.02 -14.34,-1.47 -18.78,-4.38 -4.43,-2.9 -7.69,-6.4 -9.77,-10.52 -2.07,-4.12 -3.31,-8.39 -3.7,-12.83 -0.4,-4.43 -0.59,-8.12 -0.58,-11.07 l 0.23,-96.41 z"
         id="path8"
         style="fill:#f7f7ed;fill-opacity:1" />
      <path
         class="cls-1"
         d="m 433.23,232.73 c -0.01,4.63 -1.54,8.32 -4.58,11.08 -3.03,2.75 -6.91,4.12 -11.62,4.11 -4.72,-0.01 -8.56,-1.47 -11.51,-4.35 -2.95,-2.9 -4.42,-6.53 -4.41,-10.9 0.01,-4.49 1.49,-8.14 4.46,-10.97 2.97,-2.82 6.82,-4.22 11.53,-4.21 4.85,0.01 8.75,1.43 11.71,4.26 2.95,2.84 4.43,6.5 4.42,10.99 z"
         id="path9"
         style="fill:#f7f7ed;fill-opacity:1" />
      <path
         class="cls-1"
         d="m 710.27,264.98 c -2.18,-1.11 -4.69,-2.1 -7.54,-2.94 -1.69,-0.5 -3.97,-0.94 -5.32,-1.15 -3.22,-0.5 -7.36,-0.95 -13.08,-0.26 -3.16,0.38 -6.12,1.11 -8.83,2.23 -4.17,1.72 -7.75,4.09 -10.71,7.11 -2.96,3.01 -5.25,6.6 -6.87,10.77 -1.04,2.67 -1.71,5.49 -2.09,8.4 -0.13,1.43 -0.23,2.77 -0.32,4.05 -0.17,2.57 -0.28,4.85 -0.28,6.8 l -0.13,56.05 -0.02,9.81 v 4.21 l 10.57,0.02 18.92,0.04 0.05,-19.5 0.05,-22.11 0.06,-25.09 c 0,-0.98 0.05,-1.91 0.1,-2.8 0.31,-4.99 1.35,-8.69 3.16,-11.05 2.17,-2.83 5.52,-4.23 10.11,-4.22 2.16,0 3.94,0.1 5.35,0.29 1.41,0.19 2.87,0.43 4.34,0.69 v -0.06 c 0.05,0.03 0.1,0.05 0.14,0.08 l 4.72,-20.03 c -0.73,-0.46 -1.54,-0.9 -2.38,-1.32 z"
         id="path10"
         style="fill:#f7f7ed;fill-opacity:1" />
      <path
         class="cls-1"
         d="m 485.18,346.77 v -0.39 c 4.82,-5.34 10.04,-11.63 15.06,-18.12 l 0.03,0.04 30.71,-41.36 0.33,-0.45 c 0.48,-0.69 0.9,-1.44 1.27,-2.21 0.97,-2.05 1.52,-4.42 1.53,-7.18 0.02,-10.21 -6.82,-14.61 -14.29,-14.62 h -0.36 l -28.06,-0.06 -38.14,-0.08 -0.05,22.92 38.14,0.08 8.91,0.02 v 0.58 c -4.86,5.57 -9.72,11.34 -14.79,17.88 l -30.71,41.36 -0.33,0.44 c -1.76,2.5 -2.79,5.59 -2.8,9.39 -0.02,10.21 6.82,14.61 14.29,14.63 l 70.48,0.15 0.05,-22.92 -51.29,-0.11 z"
         id="path11"
         style="fill:#f7f7ed;fill-opacity:1" />
    </g>
  </g>
  <g
     id="g19"
     style="fill:#f7f7ed;fill-opacity:1"
     transform="translate(-65.523687,-0.00126861)">
    <path
       class="cls-1"
       d="m 0,112.01 c 0,31.44 23.41,56.06 53.3,56.06 10.4,0.18 20.61,-2.67 29.42,-8.2 l 1.59,-1.01 v 6.95 h 34.45 V 58.41 H 84.27 v 6.73 L 82.68,64.12 C 73.88,58.59 63.66,55.75 53.26,55.93 23.41,55.99 0,80.6 0,112.01 Z m 88.7,0 c 0,17.85 -10.28,28.1 -28.2,28.1 -15.23,0 -26.73,-12.09 -26.73,-28.12 0,-16.03 11.5,-28.32 26.73,-28.32 25.45,0.01 28.2,19.82 28.2,28.35 v 0 z"
       id="path12"
       style="fill:#f7f7ed;fill-opacity:1" />
    <path
       class="cls-1"
       d="M 178.8,114.28 V 58.41 h -34.46 v 61.5 c 0,29.93 17.92,49.3 45.64,49.3 10.81,0 20.13,-3.3 29.35,-10.38 l 1.67,-1.3 v 8.29 h 34.41 V 58.41 H 221 v 68.44 l -0.27,0.3 c -6.6,7.3 -13.79,11.17 -20.83,11.17 -13.41,0 -21.09,-8.77 -21.09,-24.04 v 0 z"
       id="path13"
       style="fill:#f7f7ed;fill-opacity:1" />
    <path
       class="cls-1"
       d="m 345.57,137.65 c -11.67,0 -18.15,-6.21 -18.15,-17.49 V 87.72 h 37.2 V 58.41 H 327.41 V 14.3 L 293,32.09 V 58.41 H 271.56 V 87.74 H 293 v 33.53 c 0,29.1 16.85,47.91 42.91,47.91 10.37,0 18.25,-0.79 32.01,-5.11 l -3.8,-28.95 c -7.91,1.53 -13.56,2.52 -18.55,2.52 v 0 z"
       id="path14"
       style="fill:#f7f7ed;fill-opacity:1" />
    <path
       class="cls-1"
       d="m 436.91,55.99 c -33.62,0 -57.04,23.03 -57.04,56.02 0,32.99 24.14,56.28 58.69,56.28 26.16,0 46.36,-13.58 51.86,-34.71 h -34.23 c -3.5,5.1 -9.59,7.9 -17.23,7.9 -12.96,0 -22.04,-6.49 -25.57,-18.35 l -0.39,-1.3 h 78.16 c 0.53,-4 0.74,-8.02 0.64,-12.04 0,-31.71 -22.57,-53.82 -54.89,-53.82 z m -24.31,46.46 0.32,-1.3 c 2.97,-12.12 11.67,-19.07 24,-19.07 12.33,0 20.57,6.8 22.66,19.14 l 0.21,1.21 -47.19,0.03 v 0 z"
       id="path15"
       style="fill:#f7f7ed;fill-opacity:1" />
    <path
       class="cls-1"
       d="m 577.67,55.08 c -10.8,-0.04 -21.26,3.71 -29.57,10.61 l -1.67,1.3 V 58.41 H 512 v 107.35 h 34.43 V 97.87 l 0.26,-0.3 c 6.48,-7.4 11.75,-11.4 21.08,-11.4 13.25,0 20.85,8.77 20.85,24.05 v 55.59 h 34.68 v -61.46 c 0,-29.93 -17.84,-49.28 -45.62,-49.28 z"
       id="path16"
       style="fill:#f7f7ed;fill-opacity:1" />
    <path
       class="cls-1"
       d="m 710.46,137.65 c -11.67,0 -18.15,-6.21 -18.15,-17.49 V 87.72 h 37.21 V 58.41 H 692.31 V 4.78 l -34.43,17.75 v 35.88 h -21.4 v 29.33 h 21.4 v 33.53 c 0,29.1 16.85,47.91 42.93,47.91 10.37,0 18.25,-0.79 32.01,-5.11 l -3.8,-28.95 c -7.88,1.53 -13.52,2.52 -18.55,2.52 z"
       id="path17"
       style="fill:#f7f7ed;fill-opacity:1" />
    <rect
       class="cls-1"
       x="754.19"
       y="58.459999"
       width="34.459999"
       height="107.35"
       id="rect17"
       style="fill:#f7f7ed;fill-opacity:1" />
    <path
       class="cls-1"
       d="m 863.87,55.99 c -29.88,0 -53.3,24.65 -53.3,56.02 0,31.37 23.41,56.06 53.3,56.06 10.38,0.17 20.6,-2.67 29.39,-8.2 l 1.59,-1.01 v 6.95 h 34.46 V 58.41 h -34.43 v 6.73 l -1.62,-0.97 c -8.8,-5.53 -19.01,-8.37 -29.39,-8.19 z m 35.41,56.04 c 0,17.85 -10.27,28.1 -28.19,28.1 -15.25,0 -26.73,-12.09 -26.73,-28.12 0,-16.03 11.49,-28.32 26.73,-28.32 25.44,0 28.19,19.81 28.19,28.34 z"
       id="path18"
       style="fill:#f7f7ed;fill-opacity:1" />
    <path
       class="cls-1"
       d="m 770.27,0.03 c -10.66,0.44 -19.45,9.21 -19.45,19.55 -0.08,5.19 1.97,10.18 5.67,13.83 4.08,3.94 9.61,6.05 15.27,5.81 10.76,-0.26 19.84,-9.19 19.84,-19.46 0.04,-5.31 -2.1,-10.39 -5.94,-14.05 -4.14,-3.92 -9.7,-5.98 -15.39,-5.68 z"
       id="path19"
       style="fill:#f7f7ed;fill-opacity:1" />
    <rect
       class="cls-1"
       x="511.98999"
       y="187.10001"
       width="111.3"
       height="21.299999"
       id="rect19"
       style="fill:#f7f7ed;fill-opacity:1" />
  </g>
</svg>
