<?xml version="1.0" encoding="UTF-8" standalone="no"?>
<!-- Created with Inkscape (http://www.inkscape.org/) -->

<svg
   width="6.5539927mm"
   height="8.4666662mm"
   viewBox="0 0 6.5539928 8.4666662"
   version="1.1"
   id="svg1"
   inkscape:export-filename="backgroundHeader.jpg"
   inkscape:export-xdpi="96"
   inkscape:export-ydpi="96"
   xml:space="preserve"
   inkscape:version="1.3.2 (091e20e, 2023-11-25)"
   sodipodi:docname="bg_items.svg"
   xmlns:inkscape="http://www.inkscape.org/namespaces/inkscape"
   xmlns:sodipodi="http://sodipodi.sourceforge.net/DTD/sodipodi-0.dtd"
   xmlns="http://www.w3.org/2000/svg"
   xmlns:svg="http://www.w3.org/2000/svg"><sodipodi:namedview
     id="namedview1"
     pagecolor="#ffffff"
     bordercolor="#000000"
     borderopacity="0.25"
     inkscape:showpageshadow="2"
     inkscape:pageopacity="0.0"
     inkscape:pagecheckerboard="0"
     inkscape:deskcolor="#d1d1d1"
     inkscape:document-units="mm"
     showgrid="true"
     inkscape:zoom="0.10819966"
     inkscape:cx="2495.3868"
     inkscape:cy="896.49083"
     inkscape:window-width="1440"
     inkscape:window-height="773"
     inkscape:window-x="0"
     inkscape:window-y="25"
     inkscape:window-maximized="0"
     inkscape:current-layer="layer1"
     showguides="true"
     inkscape:export-bgcolor="#ffffff00"><inkscape:grid
       id="grid1"
       units="px"
       originx="-1335.0228"
       originy="-306.03961"
       spacingx="1"
       spacingy="1"
       empcolor="#f18701"
       empopacity="0.2"
       color="#f18701"
       opacity="1"
       empspacing="13"
       dotted="false"
       gridanglex="30"
       gridanglez="30"
       visible="true"
       enabled="false" /><inkscape:page
       x="-3.772986e-06"
       y="6.7944875e-06"
       width="6.5539927"
       height="8.4666662"
       id="page2"
       margin="0"
       bleed="0" /></sodipodi:namedview><defs
     id="defs1"><style
       id="style1">.cls-1{fill:#10069f;}</style></defs><g
     inkscape:label="Capa 1"
     inkscape:groupmode="layer"
     id="layer1"
     transform="translate(-1335.0228,-306.0396)"><g
       id="g10"
       transform="matrix(0.06566764,0,0,0.06566764,1247.355,285.94273)"
       inkscape:export-filename="sharedExpenses_angular/src/assets/media/images/mouse.png"
       inkscape:export-xdpi="96"
       inkscape:export-ydpi="96"
       style="fill:#000000;fill-opacity:1"><path
         style="fill:#000000;fill-opacity:1;stroke-width:0.286376"
         d="m 1341.0183,319.93193 3.8108,97.21909 20.9259,-22.14088 20.4863,38.17622 29.2298,-12.64035 -25.5474,-40.40127 29.7066,-9.63906 z"
         id="path6"
         sodipodi:nodetypes="cccccccc" /><path
         style="fill:#000000;fill-opacity:1;stroke:none"
         d="m 1365.755,397.65599 c 2.2847,2.73553 3.8575,6.27639 5.6401,9.36007 l 10.1409,17.54305 c 1.5876,2.7464 3.5419,8.38765 6.3407,10.00269 2.4974,1.44104 5.5748,-1.28713 7.6435,-2.48299 l 19.9509,-11.5328 c 2.1791,-1.25962 6.6568,-2.74164 6.6544,-5.78196 0,-3.23142 -3.9158,-7.74037 -5.5034,-10.48676 l -10.1409,-17.54305 c -1.7825,-3.08368 -4.0659,-6.21382 -5.2962,-9.55891 8.531,-1.14344 17.0513,-3.30712 25.4846,-5.03754 2.3449,-0.48114 7.4417,-0.51311 8.1023,-3.43092 0.7723,-3.41159 -6.5136,-6.40892 -8.8569,-7.88623 -8.9529,-5.6444 -17.8408,-11.41928 -26.8849,-16.91623 -2.2474,-1.36591 -6.6725,-5.61673 -9.4478,-4.70298 -1.6543,0.54468 -2.2944,2.70187 -1.3848,4.13465 1.1339,1.78625 4.0554,2.99448 5.8205,4.08613 6.9205,4.2799 13.7755,8.67131 20.6589,13.0109 3.2295,2.03608 6.4831,4.63849 9.9874,6.15283 l -0.073,0.27141 c -4.0274,0.0774 -8.3087,1.51167 -12.2532,2.32103 l -12.616,2.59024 c -1.6989,0.3486 -4.1387,0.43242 -5.341,1.84717 -2.1697,2.553 2.5522,8.1136 3.8311,10.32595 l 12.7258,22.01481 c 0.9173,1.5868 4.506,5.92787 4.0155,7.7624 -0.413,1.54442 -4.3294,2.97428 -5.6338,3.72832 -5.7117,3.30172 -11.3418,6.89166 -17.1963,9.9316 -3.0159,1.566 -5.6182,-5.73439 -6.8925,-7.93884 l -12.1294,-20.98287 c -1.3799,-2.3871 -2.9028,-6.76093 -5.3762,-8.17159 -2.6576,-1.51567 -5.0833,2.45094 -6.5526,4.10963 -5.165,5.8309 -12.0285,11.72704 -16.0411,18.39451 l -0.2714,-0.0726 -0.3472,-11.72545 -0.8723,-21.75355 -2.6237,-65.26251 c 7.966,5.17078 16.0015,10.32386 24.1395,15.21996 2.0846,1.25415 6.9226,5.59533 8.6706,1.69541 1.4572,-3.25118 -3.8272,-5.29214 -5.8995,-6.6211 -7.6785,-4.92426 -15.4895,-9.64513 -23.1377,-14.61618 -2.0541,-1.33509 -7.5252,-5.98958 -9.2586,-2.08849 -1.0064,2.26495 -0.2327,5.99122 -0.09,8.40946 0.3532,5.97075 0.4419,11.95952 0.7271,17.93414 0.9903,20.74689 2.0165,41.5585 2.5065,62.32301 0.1571,6.65576 0.4397,13.3382 0.7904,19.98677 0.1101,2.08545 -0.3835,5.52063 2.1879,6.31582 2.8581,0.88382 5.4296,-3.51693 7.0168,-5.30875 5.7049,-6.44041 11.8394,-12.75261 17.0842,-19.56969 m 15.5194,-64.56782 c -3.6247,-0.48199 -4.2559,5.03247 -0.5693,5.39054 3.4223,0.33239 3.906,-4.94686 0.5693,-5.39054"
         id="path2"
         sodipodi:nodetypes="cssssscsscssssssssccccsccssssssscccccssssscsssssccsc"
         sodipodi:insensitive="true" /></g></g></svg>
