<?xml version="1.0" encoding="UTF-8" standalone="no"?>
<!-- Created with Inkscape (http://www.inkscape.org/) -->

<svg
   width="7.9442182mm"
   height="8.4666662mm"
   viewBox="0 0 7.9442182 8.4666662"
   version="1.1"
   id="svg1"
   inkscape:export-filename="backgroundHeader.jpg"
   inkscape:export-xdpi="96"
   inkscape:export-ydpi="96"
   xml:space="preserve"
   inkscape:version="1.3.2 (091e20e, 2023-11-25)"
   sodipodi:docname="bg_items.svg"
   xmlns:inkscape="http://www.inkscape.org/namespaces/inkscape"
   xmlns:sodipodi="http://sodipodi.sourceforge.net/DTD/sodipodi-0.dtd"
   xmlns="http://www.w3.org/2000/svg"
   xmlns:svg="http://www.w3.org/2000/svg"><sodipodi:namedview
     id="namedview1"
     pagecolor="#ffffff"
     bordercolor="#000000"
     borderopacity="0.25"
     inkscape:showpageshadow="2"
     inkscape:pageopacity="0.0"
     inkscape:pagecheckerboard="0"
     inkscape:deskcolor="#d1d1d1"
     inkscape:document-units="mm"
     showgrid="true"
     inkscape:zoom="0.10819966"
     inkscape:cx="2495.3868"
     inkscape:cy="896.49083"
     inkscape:window-width="1440"
     inkscape:window-height="773"
     inkscape:window-x="0"
     inkscape:window-y="25"
     inkscape:window-maximized="0"
     inkscape:current-layer="layer1"
     showguides="true"
     inkscape:export-bgcolor="#ffffff00"><inkscape:grid
       id="grid1"
       units="px"
       originx="-1437.5623"
       originy="-249.34976"
       spacingx="1"
       spacingy="1"
       empcolor="#f18701"
       empopacity="0.2"
       color="#f18701"
       opacity="1"
       empspacing="13"
       dotted="false"
       gridanglex="30"
       gridanglez="30"
       visible="true"
       enabled="false" /><inkscape:page
       x="-2.2902286e-05"
       y="5.5358973e-06"
       width="7.9442182"
       height="8.4666662"
       id="page2"
       margin="0"
       bleed="0" /></sodipodi:namedview><defs
     id="defs1"><style
       id="style1">.cls-1{fill:#10069f;}</style></defs><g
     inkscape:label="Capa 1"
     inkscape:groupmode="layer"
     id="layer1"
     transform="translate(-1437.5622,-249.34976)"><g
       id="g9"
       transform="matrix(0.05997739,0,0,0.05997739,1347.6511,235.60067)"
       inkscape:export-filename="sharedExpenses_angular/src/assets/media/images/mouse-pointer.png"
       inkscape:export-xdpi="96"
       inkscape:export-ydpi="96"><path
         style="fill:#f7f7ed;fill-opacity:1;stroke-width:4.78898"
         d="m 5852.4432,1317.5054 c -2.0434,-1.737 -73.1497,-45.5045 -79.9222,-80.6537 -4.7901,-24.8606 14.0833,-35.4178 30.3129,-40.774 67.6469,-5.4668 51.8029,3.9187 42.8872,-18.2915 -6.116,-15.2358 -25.1777,-63.8561 -41.1745,-100.6544 -15.9968,-36.7984 -35.1971,-84.45328 -35.4877,-87.39889 -3.9603,-40.14347 36.9039,-38.72783 47.5981,-38.72783 21.9222,0 61.5053,76.09692 61.5053,76.09692 5.9663,5.6076 34.7003,-14.0288 41.9314,-8.0275 l 48.4592,13.2699 c 12.4685,-19.8584 44.3939,-13.9793 63.8548,47.9832 6.5552,20.8716 12.4034,-4.8567 37.3448,-4.8567 14.5836,0 36.6333,19.4268 51.532,54.1988 17.2642,40.2933 31.6983,95.8518 31.6983,131.594 0,22.5217 -7.4657,33.1818 -15.9418,39.7411 -10.5925,8.1973 -176.1444,81.6448 -187.7821,81.656 -4.5145,11.0986 -26.021,-4.9793 -67.1928,-39.9757 z"
         id="path8"
         transform="matrix(0.26458333,0,0,0.26458333,0.49999977,7.9166664e-8)"
         sodipodi:nodetypes="ssssssssccssssscss"
         inkscape:label="path8" /><path
         style="fill:#000000;fill-opacity:1;stroke:none"
         d="m 1530.4635,229.33364 c -3.7096,1.06754 -1.0971,10.58169 0.156,13.06343 0.5974,1.18321 1.8252,1.89006 3.1549,1.53999 1.3899,-0.36588 1.9028,-1.59762 1.9284,-2.91617 0.053,-2.75052 -0.733,-7.7747 -2.0523,-10.20328 -0.6096,-1.122 -1.9139,-1.85033 -3.187,-1.48397 m 23.7427,4.43806 c -2.5263,0.95642 -6.261,7.18367 -6.9533,9.73398 -0.5298,1.95145 1.3552,3.9814 3.3629,3.40464 2.4539,-0.70499 6.4799,-7.34525 7.0634,-9.75464 0.5095,-2.10389 -1.266,-4.21955 -3.473,-3.38398 m -53.2838,3.31389 c -4.5893,1.72042 0.4513,7.76178 3.8597,6.2895 4.208,-1.81768 -0.6399,-7.4965 -3.8597,-6.2895 m 11.5946,7.41067 c -1.9144,0.49551 -2.6686,2.67188 -1.5148,4.24399 1.3471,1.83558 6.5614,5.74334 8.9677,4.96062 1.662,-0.54064 2.4012,-2.64653 1.4529,-4.1102 -1.2189,-1.88117 -6.5629,-5.70079 -8.9058,-5.09441 m 31.7498,68.58333 c -10.7851,-3.2772 -24.0184,6.22134 -19.0843,17.94565 2.3964,5.69422 7.4804,9.14819 12.1821,12.81717 7.4782,5.83558 14.9443,11.69649 22.3631,17.60736 2.7472,2.18885 5.5349,4.32785 8.2826,6.51616 1.1677,0.93001 2.5554,2.35765 4.1413,2.4328 1.4947,0.0708 3.0869,-0.8979 4.4174,-1.47204 3.138,-1.35412 6.2712,-2.72988 9.3869,-4.13448 10.5379,-4.75056 21.2336,-9.15465 31.75,-13.9524 3.1968,-1.45841 6.4326,-2.85481 9.6631,-4.23738 1.4569,-0.62353 3.0918,-1.18149 3.5231,-2.87825 0.8479,-3.33635 0.6182,-7.33878 0.6182,-10.76633 0,-12.19763 -3.0573,-23.92338 -7.8894,-35.06304 -1.9936,-4.59615 -3.668,-10.48046 -7.8476,-13.5943 -5.5305,-4.1204 -10.7581,-2.97484 -16.8413,-1.3144 -2.0096,-7.03002 -6.5787,-16.02357 -15.1847,-15.37119 -3.0011,0.2275 -6.6216,3.19948 -9.387,2.88848 -1.7654,-0.19853 -3.3844,-2.6479 -5.2457,-3.24615 -4.759,-1.52972 -8.9089,0.79166 -13.2521,2.47669 -2.4513,-5.97494 -4.8211,-14.39975 -10.4913,-18.07049 -8.9062,-5.76565 -21.1608,0.68655 -21.165,11.4444 0,5.46821 3.0366,10.58576 5.1905,15.46087 3.3264,7.52912 6.5356,15.11 9.862,22.63913 1.6809,3.80457 4.0466,7.82372 5.0081,11.87174 m 33.4065,-61.44596 c -4.3257,0.70203 -3.9248,6.21711 0.5522,5.59331 4.7236,-0.65815 4.3479,-6.38855 -0.5522,-5.59331 m -13.5282,2.76066 c -1.8179,0.28321 -5.1886,0.4934 -6.4842,1.92024 -2.2313,2.45727 0.6852,4.82363 3.1711,4.50473 1.9061,-0.2445 5.4225,-0.55503 6.8392,-1.92961 2.8032,-2.7199 -0.9316,-4.89958 -3.5261,-4.49536 m -6.0739,20.5853 c 2.2393,-1.19384 5.3859,-2.91053 8.0065,-2.69888 3.3888,0.27371 4.3973,3.95984 5.5854,6.5641 2.1285,4.6656 4.0944,9.40535 6.202,14.08043 0.8326,1.84703 1.4644,4.40055 3.1332,5.67789 1.7245,1.31994 4.216,-0.25566 4.0555,-2.36484 -0.2613,-3.43361 -3.1336,-7.62061 -4.5024,-10.7674 -1.3282,-3.05332 -3.399,-6.37984 -3.9824,-9.66304 3.0489,-1.03784 6.0115,-3.11104 9.3869,-2.37699 2.9886,0.64992 4.1656,3.18292 5.3094,5.69003 2.418,5.30025 4.7288,10.66394 7.037,16.01305 1.0322,2.39207 2.6639,8.96758 5.5995,9.51733 2.0702,0.38767 3.3914,-1.96911 2.8753,-3.71951 -1.2947,-4.39065 -4.1498,-8.27414 -5.3603,-12.7 6.8646,-3.90281 12.2251,0.63992 14.9085,6.90218 4.4998,10.50128 9.312,21.4663 9.387,33.13043 0.02,3.14543 0.039,6.24256 0,9.38696 -0.012,1.02906 0.3463,2.79152 -0.4437,3.59765 -2.4708,2.52112 -8.4547,3.91205 -11.7052,5.31467 -9.319,4.02137 -18.6319,8.09074 -27.8847,12.26202 -2.9329,1.32217 -5.9079,2.55056 -8.8348,3.88587 -1.1173,0.50973 -2.8754,1.68028 -4.1413,1.46693 -2.2689,-0.38239 -5.1178,-3.64558 -6.9022,-5.05051 l -16.8413,-13.25218 c -5.1092,-4.02275 -11.3273,-7.81596 -15.689,-12.6429 -1.7888,-1.97952 -3.6491,-4.64989 -3.5653,-7.45329 0.2558,-8.55578 12.692,-9.11981 18.1499,-5.49277 3.842,2.55314 6.4466,6.7947 10.2153,9.476 1.6901,1.20248 4.2611,0.21823 4.2324,-2.05062 -0.02,-1.58568 -1.5517,-2.61562 -2.5761,-3.6 -2.3892,-2.29575 -6.0033,-4.87048 -7.6714,-7.71957 -2.8425,-4.85471 -4.6488,-10.59068 -6.9225,-15.73695 -4.7058,-10.65124 -9.499,-21.28743 -14.0018,-32.02609 -2.0767,-4.95286 -1.5231,-12.02265 4.8524,-13.38531 3.5516,-0.75911 7.1591,0.89804 9.0137,3.99835 5.3525,8.94718 8.9169,19.68524 13.0317,29.26522 1.2249,2.85159 2.396,5.77415 3.766,8.55849 0.55,1.11795 1.5007,2.39741 2.9017,2.33097 3.5438,-0.16807 2.3265,-3.97941 1.4967,-5.91989 -2.6464,-6.18908 -5.5681,-12.27078 -8.1228,-18.49783 m -42.5174,-9.81366 c -2.8415,0.3583 -7.7954,0.74738 -10.1852,2.36165 -2.6474,1.78828 -0.5016,5.10032 2.1787,4.94124 2.6273,-0.15594 8.0625,-0.7944 10.1851,-2.37678 2.4459,-1.82331 0.6342,-5.2808 -2.1786,-4.92611 m 8.2828,16.34814 c -2.5907,0.73876 -6.4531,7.24434 -7.1621,9.75465 -0.5604,1.98442 1.2593,3.99975 3.2965,3.46834 2.5014,-0.65253 6.5335,-7.37692 7.0696,-9.81834 0.4288,-1.95281 -1.0627,-4.01523 -3.204,-3.40465 m 91.3846,55.71844 c -1.5372,0.24425 -3.8628,1.18626 -4.6055,2.63944 -1.0361,2.02701 0.7972,4.23145 2.9489,3.91571 1.5168,-0.22256 3.8294,-1.18379 4.6058,-2.57298 1.1788,-2.10933 -0.7152,-4.33715 -2.9492,-3.98217 m -11.3196,4.98618 c -3.4575,0.68941 -6.9823,2.92032 -10.2152,4.30896 -6.423,2.75885 -13.0903,5.3336 -19.3259,8.49074 -2.1972,1.11248 -3.2452,4.92881 9e-4,5.48404 2.5873,0.44254 5.9802,-1.90225 8.2815,-2.8953 5.443,-2.34875 10.8387,-4.80716 16.2891,-7.13949 2.2783,-0.9749 5.955,-1.90821 7.6468,-3.76424 1.8434,-2.02249 -0.1207,-4.99447 -2.6772,-4.48471 z"
         id="path7"
         inkscape:export-filename="sharedExpenses_angular/src/assets/media/images/mouse-pointer.png"
         inkscape:export-xdpi="96"
         inkscape:export-ydpi="96" /></g></g></svg>
